<?xml version="1.0" standalone="no"?>
<!DOCTYPE svg PUBLIC "-//W3C//DTD SVG 20010904//EN"
 "http://www.w3.org/TR/2001/REC-SVG-20010904/DTD/svg10.dtd">
<svg version="1.0" xmlns="http://www.w3.org/2000/svg"
 width="1456.000000pt" height="1456.000000pt" viewBox="0 0 1456.000000 1456.000000"
 preserveAspectRatio="xMidYMid meet">
<metadata>
Created by potrace 1.14, written by Peter Selinger 2001-2017
</metadata>
<g transform="translate(0.000000,1456.000000) scale(0.100000,-0.100000)"
fill="#000000" stroke="none">
<path d="M6856 13485 c4 -11 -368 -13 -2086 -11 -1722 2 -2092 0 -2101 -11 -7
-7 -18 -13 -26 -13 -52 0 -233 -143 -233 -185 0 -8 -4 -15 -10 -15 -5 0 -9 -3
-8 -7 2 -12 -23 -63 -53 -108 -14 -22 -43 -74 -64 -115 -73 -147 -145 -217
-245 -239 -25 -5 -87 -11 -138 -12 -132 -3 -208 -19 -317 -70 -207 -97 -386
-322 -456 -575 -27 -99 -34 -289 -14 -385 77 -360 350 -632 710 -704 97 -20
275 -11 400 19 213 52 434 239 544 461 124 252 125 526 0 790 -52 111 -68 194
-51 271 25 120 91 206 197 258 l59 29 1936 -1 c1064 0 1940 -1 1946 -1 8 -1
11 -188 11 -644 l0 -644 -31 -1 c-36 -1 -647 0 -841 2 -114 1 -138 -2 -195
-23 -130 -47 -206 -122 -277 -271 -56 -116 -99 -171 -157 -199 -58 -29 -72
-31 -202 -35 -119 -4 -202 -22 -301 -67 -168 -75 -324 -232 -409 -413 -84
-181 -99 -352 -51 -597 11 -54 70 -185 112 -250 121 -180 292 -303 506 -361
116 -31 307 -31 425 0 253 67 453 233 564 467 134 280 106 606 -73 872 l-35
51 23 57 c65 159 140 200 349 188 66 -3 227 -6 357 -7 l236 0 0 -1978 0 -1978
-1566 0 -1566 0 -24 43 c-58 101 -195 263 -277 327 -112 88 -248 148 -376 167
-56 8 -202 8 -253 0 -22 -4 -56 -9 -75 -13 -66 -11 -200 -62 -276 -105 -89
-51 -217 -172 -270 -256 -97 -150 -138 -298 -137 -485 1 -129 44 -294 100
-387 150 -246 330 -371 616 -426 93 -18 291 -13 372 9 207 57 391 201 539 422
25 38 51 77 59 88 12 18 61 18 1564 19 852 0 1555 -3 1560 -6 6 -4 9 -402 9
-1101 l-1 -1095 -255 -6 c-387 -9 -392 -8 -430 7 -57 24 -101 68 -131 133 -16
33 -29 66 -29 73 0 7 14 33 30 57 38 55 100 184 100 207 0 9 4 19 8 22 12 7
36 168 36 236 0 90 -13 173 -38 246 -98 289 -327 492 -621 549 -67 14 -239 14
-295 1 -14 -3 -38 -8 -55 -12 -59 -12 -181 -69 -252 -117 -229 -155 -358 -414
-348 -697 5 -130 9 -153 47 -258 51 -142 172 -299 294 -383 61 -41 179 -96
240 -109 27 -6 96 -13 154 -16 126 -6 165 -15 217 -53 42 -30 95 -106 115
-162 17 -51 82 -142 129 -182 94 -81 172 -100 384 -97 401 7 687 5 695 -5 4
-5 7 -222 7 -480 l0 -470 -1951 0 -1951 1 -56 27 c-146 70 -229 239 -196 397
5 25 28 86 52 135 64 137 86 232 90 380 7 335 -182 652 -482 806 -42 21 -94
44 -117 50 -23 6 -48 14 -56 17 -48 17 -144 27 -250 25 -215 -2 -430 -94 -586
-248 -133 -132 -212 -276 -254 -464 -22 -95 -16 -297 10 -365 5 -14 7 -26 5
-26 -8 0 40 -120 75 -190 42 -83 128 -198 188 -251 153 -135 307 -196 505
-201 206 -4 283 -50 368 -218 18 -36 47 -89 66 -118 18 -29 47 -82 65 -117 54
-111 127 -181 231 -220 26 -10 47 -23 47 -30 0 -7 8 -15 18 -17 9 -2 182 -4
385 -3 202 0 368 -2 368 -5 1 -3 2 -88 4 -190 1 -102 7 -211 13 -242 36 -184
157 -361 316 -463 78 -49 137 -74 233 -95 74 -16 145 -18 801 -18 396 0 739 4
763 9 77 15 91 18 128 30 190 62 360 229 435 427 40 107 44 143 45 383 l1 167
578 1 c629 2 2198 3 2248 2 l32 -1 0 -203 c1 -166 5 -215 21 -277 75 -291 306
-499 596 -537 65 -9 1433 -9 1505 0 259 31 488 221 574 477 34 103 39 145 40
374 l1 199 60 17 c131 37 234 89 353 177 211 156 355 371 425 633 l31 115 2
4175 c1 2296 3 4181 3 4188 1 11 13 12 53 7 197 -27 397 -174 448 -329 7 -21
13 -72 14 -112 l2 -74 -30 -1 c-198 -5 -233 -14 -300 -84 -79 -81 -74 11 -72
-1375 l1 -1235 21 -46 c27 -58 75 -105 134 -132 43 -20 63 -21 492 -22 515 -1
520 0 600 74 94 87 88 -22 85 1386 -2 1224 -2 1230 -23 1275 -25 55 -72 104
-128 132 -33 17 -62 22 -144 24 -57 1 -106 5 -109 7 -2 3 -6 45 -8 94 -11 323
-217 645 -523 817 -121 68 -328 128 -446 129 l-71 0 0 266 c-1 180 -5 289 -14
336 -59 302 -236 570 -493 741 -133 89 -249 136 -453 180 -16 4 -1109 8 -2427
10 -1969 2 -2396 0 -2392 -11z m4804 -536 c228 -63 390 -234 446 -470 3 -13 7
-135 9 -270 l3 -246 -2423 0 -2422 0 -1 504 -1 503 2158 0 c2148 0 2157 0
2231 -21z m-9609 -774 c128 -37 199 -136 199 -280 0 -49 -6 -74 -31 -124 -76
-152 -250 -199 -394 -106 -118 75 -171 221 -122 337 56 134 214 212 348 173z
m10066 -2680 c0 -1070 -1 -1945 -2 -1945 -4 0 -253 -96 -683 -264 -250 -97
-457 -176 -461 -176 -4 0 -15 35 -26 78 -21 87 -90 265 -137 356 -185 356
-517 652 -889 796 -227 87 -378 115 -629 115 -233 -1 -391 -28 -590 -102 -493
-184 -866 -570 -1032 -1068 -21 -60 -39 -123 -42 -140 -3 -16 -7 -39 -9 -50
-2 -11 -7 -37 -11 -57 l-7 -38 -163 0 -164 0 0 2220 0 2220 2422 0 2423 0 0
-1945z m-6758 941 c91 -58 135 -134 134 -235 0 -36 -3 -79 -7 -96 -13 -52 -69
-118 -126 -150 -49 -26 -64 -30 -135 -29 -69 0 -88 4 -133 29 -94 51 -137 127
-137 240 1 112 51 195 148 246 80 42 185 40 256 -5z m8199 -964 l2 -922 -37
-1 c-120 -2 -237 1 -242 7 -9 8 -8 1828 1 1834 4 3 67 5 140 5 l133 0 3 -923z
m-4098 -1547 c14 -3 48 -9 77 -14 28 -6 87 -22 129 -36 366 -123 657 -424 763
-791 12 -39 21 -74 21 -78 0 -3 -522 -6 -1161 -6 l-1161 0 7 33 c14 67 59 185
102 267 180 344 538 591 908 627 33 3 62 7 64 9 6 5 219 -4 251 -11z m-6438
-954 c157 -74 212 -257 118 -395 -92 -133 -320 -150 -440 -33 -116 112 -90
322 51 409 78 49 190 56 271 19z m9095 -944 l0 -964 -876 0 c-482 0 -898 -3
-926 -7 -141 -20 -272 -64 -378 -128 -290 -176 -467 -504 -451 -838 20 -416
291 -754 699 -871 l80 -23 920 -4 c643 -2 921 -6 926 -14 7 -11 -11 -98 -35
-167 -65 -180 -242 -333 -442 -382 -37 -9 -571 -12 -2197 -13 -1182 -1 -2152
1 -2157 4 -4 3 -7 871 -6 1930 l1 1925 1755 1 c966 0 1769 4 1785 8 17 4 64
20 105 36 114 43 612 239 635 250 11 5 103 41 205 80 102 40 194 76 205 81 41
18 140 57 146 58 3 1 6 -433 6 -962z m-6665 -828 c69 -18 115 -57 150 -126 28
-57 30 -70 26 -128 -12 -141 -114 -237 -254 -238 -174 -1 -295 191 -225 356
49 113 177 170 303 136z m5063 -675 c158 -41 279 -171 303 -327 17 -105 3
-180 -49 -273 -118 -210 -396 -273 -594 -136 -140 97 -207 294 -156 459 24 78
42 108 104 172 100 103 249 143 392 105z m1601 -396 l-1 -413 -432 -1 -432 -1
15 36 c26 60 62 173 70 221 26 157 4 360 -55 500 l-29 70 432 0 433 0 -1 -412z
m-10053 -185 c67 -24 121 -73 154 -141 37 -75 39 -183 5 -253 -50 -103 -134
-154 -252 -153 -89 0 -148 24 -208 84 -60 59 -77 102 -77 195 1 89 12 120 72
186 81 90 197 121 306 82z m9125 -1852 l53 -1 -3 -188 -3 -189 -29 -41 c-16
-24 -46 -50 -72 -63 -44 -21 -50 -21 -739 -21 l-694 0 -43 24 c-38 21 -92 83
-96 112 -7 38 -7 344 -1 356 6 13 103 15 791 13 430 -1 807 -2 836 -2z m-5547
-24 c1 -12 1 -90 1 -173 0 -133 -3 -156 -21 -192 -22 -43 -69 -84 -111 -98
-14 -4 -329 -8 -700 -9 -532 -1 -685 2 -722 12 -49 14 -100 62 -120 112 -7 19
-15 327 -9 361 1 3 379 6 841 7 l840 3 1 -23z"/>
</g>
</svg>
